<?xml version="1.0" encoding="UTF-8" standalone="no"?>
<!-- Created with Inkscape (http://www.inkscape.org/) -->

<svg
   width="364.40601mm"
   height="364.40601mm"
   viewBox="0 0 364.40601 364.40602"
   version="1.1"
   id="svg1"
   sodipodi:docname="coc_logo.svg"
   inkscape:version="1.4 (86a8ad7, 2024-10-11)"
   xml:space="preserve"
   inkscape:export-filename="coc_logo.png"
   inkscape:export-xdpi="34.851234"
   inkscape:export-ydpi="34.851234"
   xmlns:inkscape="http://www.inkscape.org/namespaces/inkscape"
   xmlns:sodipodi="http://sodipodi.sourceforge.net/DTD/sodipodi-0.dtd"
   xmlns="http://www.w3.org/2000/svg"
   xmlns:svg="http://www.w3.org/2000/svg"><sodipodi:namedview
     id="namedview1"
     pagecolor="#505050"
     bordercolor="#eeeeee"
     borderopacity="1"
     inkscape:showpageshadow="0"
     inkscape:pageopacity="0"
     inkscape:pagecheckerboard="0"
     inkscape:deskcolor="#505050"
     inkscape:document-units="mm"
     inkscape:zoom="0.5"
     inkscape:cx="644"
     inkscape:cy="729"
     inkscape:window-width="3440"
     inkscape:window-height="1417"
     inkscape:window-x="1072"
     inkscape:window-y="487"
     inkscape:window-maximized="1"
     inkscape:current-layer="layer1"
     showguides="true"
     inkscape:export-bgcolor="#00000000" /><defs
     id="defs1"><inkscape:path-effect
       effect="fillet_chamfer"
       id="path-effect56"
       is_visible="true"
       lpeversion="1"
       nodesatellites_param="F,0,0,1,0,6.6145834,0,1 @ F,0,0,1,0,6.6145834,0,1 @ F,0,0,1,0,6.6145834,0,1 @ F,0,0,1,0,6.6145834,0,1"
       radius="25"
       unit="px"
       method="auto"
       mode="F"
       chamfer_steps="1"
       flexible="false"
       use_knot_distance="true"
       apply_no_radius="true"
       apply_with_radius="true"
       only_selected="false"
       hide_knots="false" /><inkscape:path-effect
       effect="fillet_chamfer"
       id="path-effect54"
       is_visible="true"
       lpeversion="1"
       nodesatellites_param="F,0,0,1,0,6.6145834,0,1 @ F,0,0,1,0,6.6145834,0,1 @ F,0,0,1,0,6.6145834,0,1 @ F,0,0,1,0,6.6145834,0,1"
       radius="25"
       unit="px"
       method="auto"
       mode="F"
       chamfer_steps="1"
       flexible="false"
       use_knot_distance="true"
       apply_no_radius="true"
       apply_with_radius="true"
       only_selected="false"
       hide_knots="false" /><inkscape:path-effect
       effect="mirror_symmetry"
       start_point="548.55588,130.18327"
       end_point="548.55588,144.21561"
       center_point="548.55588,137.19944"
       id="path-effect52"
       is_visible="true"
       lpeversion="1.2"
       lpesatellites=""
       mode="free"
       discard_orig_path="true"
       fuse_paths="false"
       oposite_fuse="false"
       split_items="false"
       split_open="false"
       link_styles="false" /><inkscape:path-effect
       effect="fillet_chamfer"
       id="path-effect50"
       is_visible="true"
       lpeversion="1"
       nodesatellites_param="F,0,0,1,0,6.6145834,0,1 @ F,0,0,1,0,6.6145834,0,1 @ F,0,0,1,0,6.6145834,0,1 @ F,0,0,1,0,6.6145834,0,1"
       radius="25"
       unit="px"
       method="auto"
       mode="F"
       chamfer_steps="1"
       flexible="false"
       use_knot_distance="true"
       apply_no_radius="true"
       apply_with_radius="true"
       only_selected="false"
       hide_knots="false" /><inkscape:path-effect
       effect="fillet_chamfer"
       id="path-effect48"
       is_visible="true"
       lpeversion="1"
       nodesatellites_param="F,0,0,1,0,6.6145834,0,1 @ F,0,0,1,0,6.6145834,0,1 @ F,0,0,1,0,6.6145834,0,1 @ F,0,0,1,0,6.6145834,0,1"
       radius="25"
       unit="px"
       method="auto"
       mode="F"
       chamfer_steps="1"
       flexible="false"
       use_knot_distance="true"
       apply_no_radius="true"
       apply_with_radius="true"
       only_selected="false"
       hide_knots="false" /><inkscape:path-effect
       effect="mirror_symmetry"
       start_point="548.55588,130.18327"
       end_point="548.55588,144.21561"
       center_point="548.55588,137.19944"
       id="path-effect46"
       is_visible="true"
       lpeversion="1.2"
       lpesatellites=""
       mode="free"
       discard_orig_path="true"
       fuse_paths="false"
       oposite_fuse="false"
       split_items="false"
       split_open="false"
       link_styles="false" /><inkscape:path-effect
       effect="fillet_chamfer"
       id="path-effect45"
       is_visible="true"
       lpeversion="1"
       nodesatellites_param="F,0,0,1,0,6.6145834,0,1 @ F,0,0,1,0,6.6145834,0,1 @ F,0,0,1,0,6.6145834,0,1 @ F,0,0,1,0,6.6145834,0,1"
       radius="25"
       unit="px"
       method="auto"
       mode="F"
       chamfer_steps="1"
       flexible="false"
       use_knot_distance="true"
       apply_no_radius="true"
       apply_with_radius="true"
       only_selected="false"
       hide_knots="false" /><inkscape:path-effect
       effect="fillet_chamfer"
       id="path-effect43"
       is_visible="true"
       lpeversion="1"
       nodesatellites_param="F,0,0,1,0,6.6145834,0,1 @ F,0,0,1,0,6.6145834,0,1 @ F,0,0,1,0,6.6145834,0,1 @ F,0,0,1,0,6.6145834,0,1"
       radius="25"
       unit="px"
       method="auto"
       mode="F"
       chamfer_steps="1"
       flexible="false"
       use_knot_distance="true"
       apply_no_radius="true"
       apply_with_radius="true"
       only_selected="false"
       hide_knots="false" /><inkscape:path-effect
       effect="fillet_chamfer"
       id="path-effect41"
       is_visible="true"
       lpeversion="1"
       nodesatellites_param="F,0,0,1,0,6.6145834,0,1 @ F,0,0,1,0,6.6145834,0,1 @ F,0,0,1,0,6.6145834,0,1 @ F,0,0,1,0,6.6145834,0,1"
       radius="25"
       unit="px"
       method="auto"
       mode="F"
       chamfer_steps="1"
       flexible="false"
       use_knot_distance="true"
       apply_no_radius="true"
       apply_with_radius="true"
       only_selected="false"
       hide_knots="false" /><inkscape:path-effect
       effect="fillet_chamfer"
       id="path-effect39"
       is_visible="true"
       lpeversion="1"
       nodesatellites_param="F,0,0,1,0,6.6145834,0,1 @ F,0,0,1,0,6.6145834,0,1 @ F,0,0,1,0,6.6145834,0,1 @ F,0,0,1,0,6.6145834,0,1"
       radius="25"
       unit="px"
       method="auto"
       mode="F"
       chamfer_steps="1"
       flexible="false"
       use_knot_distance="true"
       apply_no_radius="true"
       apply_with_radius="true"
       only_selected="false"
       hide_knots="false" /><inkscape:path-effect
       effect="fillet_chamfer"
       id="path-effect37"
       is_visible="true"
       lpeversion="1"
       nodesatellites_param="F,0,0,1,0,6.6145834,0,1 @ F,0,0,1,0,6.6145834,0,1 @ F,0,0,1,0,6.6145834,0,1 @ F,0,0,1,0,6.6145834,0,1"
       radius="25"
       unit="px"
       method="auto"
       mode="F"
       chamfer_steps="1"
       flexible="false"
       use_knot_distance="true"
       apply_no_radius="true"
       apply_with_radius="true"
       only_selected="false"
       hide_knots="false" /><inkscape:path-effect
       effect="fillet_chamfer"
       id="path-effect35"
       is_visible="true"
       lpeversion="1"
       nodesatellites_param="F,0,0,1,0,28.045833,0,1 @ F,0,0,1,0,28.045833,0,1 @ F,0,0,1,0,28.045833,0,1 @ F,0,0,1,0,28.045833,0,1 @ F,0,0,1,0,28.045833,0,1 @ F,0,0,1,0,28.045833,0,1 @ F,0,0,1,0,28.045833,0,1 @ F,0,0,1,0,28.045833,0,1 @ F,0,0,1,0,28.045833,0,1 @ F,0,0,1,0,28.045833,0,1 @ F,0,0,1,0,28.045833,0,1 @ F,0,0,1,0,28.045833,0,1 @ F,0,0,1,0,28.045833,0,1 @ F,0,0,1,0,28.045833,0,1 @ F,0,0,1,0,28.045833,0,1 @ F,0,0,1,0,28.045833,0,1 @ F,0,0,1,0,28.045833,0,1 @ F,0,0,1,0,28.045833,0,1 @ F,0,0,1,0,28.045833,0,1 | F,0,0,1,0,28.045833,0,1 @ F,0,0,1,0,28.045833,0,1 @ F,0,0,1,0,28.045833,0,1 @ F,0,0,1,0,28.045833,0,1 @ F,0,0,1,0,28.045833,0,1 @ F,0,0,1,0,28.045833,0,1 @ F,0,0,1,0,28.045833,0,1 @ F,0,0,1,0,28.045833,0,1 @ F,0,0,1,0,28.045833,0,1 @ F,0,0,1,0,28.045833,0,1 @ F,0,0,1,0,28.045833,0,1 @ F,0,0,1,0,28.045833,0,1 @ F,0,0,1,0,28.045833,0,1 @ F,0,0,1,0,28.045833,0,1 @ F,0,0,1,0,28.045833,0,1 @ F,0,0,1,0,28.045833,0,1 @ F,0,0,1,0,28.045833,0,1 @ F,0,0,1,0,28.045833,0,1 @ F,0,0,1,0,28.045833,0,1"
       radius="106"
       unit="px"
       method="auto"
       mode="F"
       chamfer_steps="1"
       flexible="false"
       use_knot_distance="true"
       apply_no_radius="true"
       apply_with_radius="true"
       only_selected="false"
       hide_knots="false" /><linearGradient
       id="swatch29"
       inkscape:swatch="solid"><stop
         style="stop-color:#ffffff;stop-opacity:1;"
         offset="0"
         id="stop29" /></linearGradient><inkscape:path-effect
       effect="copy_rotate"
       starting_point="0,0"
       origin="76.22,148.50011"
       id="path-effect25"
       is_visible="true"
       lpeversion="1.2"
       lpesatellites=""
       method="fuse_paths"
       num_copies="13"
       starting_angle="0"
       rotation_angle="120"
       gap="0"
       copies_to_360="true"
       mirror_copies="false"
       split_items="false"
       link_styles="false" /><rect
       x="0"
       y="0"
       width="1239.1699"
       height="1430.8702"
       id="rect15" /><rect
       x="-1552.8065"
       y="-62.225395"
       width="514.77374"
       height="311.12698"
       id="rect13" /><rect
       x="0"
       y="0"
       width="1239.1699"
       height="1430.8702"
       id="rect12" /><inkscape:path-effect
       effect="fillet_chamfer"
       id="path-effect4"
       is_visible="true"
       lpeversion="1"
       nodesatellites_param="F,0,0,1,0,26.458333,0,1 @ F,0,0,1,0,26.458333,0,1 @ F,0,0,1,0,26.458333,0,1 @ F,0,0,1,0,26.458333,0,1 @ F,0,0,1,0,26.458333,0,1 @ F,0,0,1,0,26.458333,0,1"
       radius="100"
       unit="px"
       method="auto"
       mode="F"
       chamfer_steps="1"
       flexible="false"
       use_knot_distance="true"
       apply_no_radius="true"
       apply_with_radius="true"
       only_selected="false"
       hide_knots="false" /></defs><g
     inkscape:label="C Object Configuration"
     inkscape:groupmode="layer"
     id="layer1"
     transform="translate(58.931862,33.702716)"
     sodipodi:insensitive="true"><path
       id="path1"
       style="display:inline;fill:#c0b3ff;fill-opacity:1;stroke-width:0.264583"
       d="M 281.06358,239.6017 123.27114,148.50029 -34.520779,239.6017 a 45.827177,45.827177 0 0 0 16.77417,16.77365 l 118.104419,68.18809 a 45.827177,45.827177 0 0 0 45.82718,0 l 118.10494,-68.18809 a 45.827177,45.827177 0 0 0 16.77365,-16.77365 z"
       inkscape:label="Bottom"
       inkscape:export-filename="coc_logo.png"
       inkscape:export-xdpi="38.735607"
       inkscape:export-ydpi="38.735607" /><path
       id="path12"
       style="display:inline;fill:#c2bdff;fill-opacity:1;stroke-width:0.264583"
       d="M 281.06358,57.398863 123.27114,148.50029 281.06358,239.6017 a 45.827177,45.827177 0 0 0 6.13968,-22.91385 V 80.312193 a 45.827177,45.827177 0 0 0 -6.13968,-22.91333 z"
       inkscape:label="Right" /><path
       id="path11"
       style="display:inline;fill:#cdc7ff;fill-opacity:1;stroke-width:0.264583"
       d="m 123.27166,-33.702553 a 45.827177,45.827177 0 0 0 -22.91385,6.139677 L -17.746609,40.624693 a 45.827177,45.827177 0 0 0 -22.91384,39.6875 V 216.68785 a 45.827177,45.827177 0 0 0 6.13967,22.91385 L 123.27114,148.50029 281.06358,57.398863 A 45.827177,45.827177 0 0 0 264.28993,40.624693 L 146.18499,-27.562876 a 45.827177,45.827177 0 0 0 -22.91333,-6.139677 z"
       inkscape:label="Top/Left" /><path
       id="path22"
       style="display:inline;opacity:1;fill:#ffffff;fill-opacity:1;stroke-width:0.264583"
       inkscape:label="C"
       d="M 123.27166,39.656794 A 108.84342,108.84342 0 0 0 14.428171,148.50029 108.84342,108.84342 0 0 0 123.27166,257.34377 108.84342,108.84342 0 0 0 217.50725,202.9073 L 170.49513,175.76477 A 54.557873,54.557873 0 0 1 123.27166,203.0582 54.557873,54.557873 0 0 1 68.713751,148.50029 54.557873,54.557873 0 0 1 123.27166,93.942369 54.557873,54.557873 0 0 1 170.49513,121.2358 l 47.01212,-27.142536 a 108.84342,108.84342 0 0 0 -94.23559,-54.43647 z" /><g
       inkscape:groupmode="layer"
       id="layer3"
       inkscape:label="Config"><g
         inkscape:groupmode="layer"
         id="g47"
         inkscape:label="Third"
         transform="matrix(0.29380304,0,0,0.29380304,100.27964,112.84318)"><path
           style="opacity:1;fill:#ffffff;fill-opacity:1;stroke:#ffffff;stroke-width:17.639;stroke-dasharray:none;stroke-opacity:1"
           id="path46"
           width="83.31292"
           height="14.03165"
           x="335.70828"
           y="125.03033"
           sodipodi:type="rect"
           transform="translate(-10.032549,52.059975)"
           inkscape:label="Short"
           d="m 342.32287,125.03033 70.08375,0 a 6.6145834,6.6145834 45 0 1 6.61458,6.61458 v 0.80248 a 6.6145834,6.6145834 135 0 1 -6.61458,6.61459 h -70.08375 a 6.6145834,6.6145834 45 0 1 -6.61459,-6.61459 v -0.80248 a 6.6145834,6.6145834 135 0 1 6.61459,-6.61458 z"
           inkscape:path-effect="#path-effect48" /><path
           id="path47"
           style="opacity:1;fill:#ffffff;fill-opacity:1;stroke:#ffffff;stroke-width:17.639;stroke-dasharray:none;stroke-opacity:1"
           d="m 461.83235,177.08996 a 6.6145834,6.6145834 0 0 0 -6.6133,6.61515 v 0.80204 a 6.6145834,6.6145834 0 0 0 6.6133,6.61515 h 64.4243 5.6601 64.4242 a 6.6145834,6.6145834 0 0 0 6.6152,-6.61515 v -0.80204 a 6.6145834,6.6145834 0 0 0 -6.6152,-6.61515 h -64.4242 -5.6601 z"
           inkscape:label="Long" /></g><g
         inkscape:groupmode="layer"
         id="g44"
         inkscape:label="Second"
         transform="matrix(0.29380304,0,0,0.29380304,100.27964,94.107823)"><path
           style="opacity:1;fill:#ffffff;fill-opacity:1;stroke:#ffffff;stroke-width:17.639;stroke-dasharray:none;stroke-opacity:1"
           id="path43"
           width="83.31292"
           height="14.03165"
           x="335.70828"
           y="125.03033"
           sodipodi:type="rect"
           transform="translate(183.93495,52.059975)"
           inkscape:label="Short"
           d="m 342.32287,125.03033 70.08375,0 a 6.6145834,6.6145834 45 0 1 6.61458,6.61458 v 0.80248 a 6.6145834,6.6145834 135 0 1 -6.61458,6.61459 h -70.08375 a 6.6145834,6.6145834 45 0 1 -6.61459,-6.61459 v -0.80248 a 6.6145834,6.6145834 135 0 1 6.61459,-6.61458 z"
           inkscape:path-effect="#path-effect45" /><path
           id="path44"
           style="opacity:1;fill:#ffffff;fill-opacity:1;stroke:#ffffff;stroke-width:17.639;stroke-dasharray:none;stroke-opacity:1"
           d="m 332.28905,177.08996 a 6.6145834,6.6145834 0 0 0 -6.6133,6.61515 v 0.80204 a 6.6145834,6.6145834 0 0 0 6.6133,6.61515 h 64.4243 5.6601 64.4242 a 6.6145834,6.6145834 0 0 0 6.6152,-6.61515 v -0.80204 a 6.6145834,6.6145834 0 0 0 -6.6152,-6.61515 h -64.4242 -5.6601 z"
           inkscape:label="Long" /></g><g
         inkscape:groupmode="layer"
         id="g53"
         inkscape:label="First"
         transform="matrix(0.29380304,0,0,0.29380304,100.27964,75.372364)"><path
           style="opacity:1;fill:#ffffff;fill-opacity:1;stroke:#ffffff;stroke-width:17.639;stroke-dasharray:none;stroke-opacity:1"
           id="path52"
           width="83.31292"
           height="14.03165"
           x="335.70828"
           y="125.03033"
           sodipodi:type="rect"
           transform="translate(-10.032549,52.059975)"
           inkscape:label="Short"
           d="m 342.32287,125.03033 70.08375,0 a 6.6145834,6.6145834 45 0 1 6.61458,6.61458 v 0.80248 a 6.6145834,6.6145834 135 0 1 -6.61458,6.61459 h -70.08375 a 6.6145834,6.6145834 45 0 1 -6.61459,-6.61459 v -0.80248 a 6.6145834,6.6145834 135 0 1 6.61459,-6.61458 z"
           inkscape:path-effect="#path-effect54" /><path
           id="path53"
           style="opacity:1;fill:#ffffff;fill-opacity:1;stroke:#ffffff;stroke-width:17.639;stroke-dasharray:none;stroke-opacity:1"
           d="m 461.83235,177.08996 a 6.6145834,6.6145834 0 0 0 -6.6133,6.61515 v 0.80204 a 6.6145834,6.6145834 0 0 0 6.6133,6.61515 h 64.4243 5.6601 64.4242 a 6.6145834,6.6145834 0 0 0 6.6152,-6.61515 v -0.80204 a 6.6145834,6.6145834 0 0 0 -6.6152,-6.61515 h -64.4242 -5.6601 z"
           inkscape:label="Long" /></g></g></g></svg>
